<?xml version="1.0" standalone="no"?>
<!DOCTYPE svg PUBLIC "-//W3C//DTD SVG 20010904//EN"
 "http://www.w3.org/TR/2001/REC-SVG-20010904/DTD/svg10.dtd">
<svg version="1.0" xmlns="http://www.w3.org/2000/svg"
 width="512.000000pt" height="512.000000pt" viewBox="0 0 512.000000 512.000000"
 preserveAspectRatio="xMidYMid meet">
<metadata>
Created by potrace 1.14, written by Peter Selinger 2001-2017
</metadata>
<g transform="translate(0.000000,512.000000) scale(0.100000,-0.100000)"
fill="#000000" stroke="none">
<path d="M1562 4890 c-12 -5 -27 -21 -32 -35 -6 -16 -10 -234 -10 -561 l0
-534 -468 0 c-464 0 -469 0 -488 -21 -19 -21 -19 -66 -22 -1723 -2 -1151 0
-1713 7 -1737 7 -23 20 -40 36 -47 19 -9 303 -12 1094 -12 1037 0 1069 1 1092
19 l24 19 5 1366 5 1365 339 -1352 c187 -744 344 -1362 349 -1373 22 -52 27
-52 520 72 254 63 479 120 500 125 29 8 42 18 51 41 12 29 -17 151 -405 1697
-439 1748 -426 1702 -478 1701 -9 0 -211 -49 -448 -109 l-433 -109 0 585 0
584 -25 24 -24 25 -583 -1 c-325 0 -593 -4 -606 -9z m1093 -2330 l0 -2195
-492 -3 -493 -2 0 2200 0 2200 493 -2 492 -3 0 -2195z m1367 -399 l396 -1578
-402 -101 c-220 -56 -404 -98 -407 -94 -11 12 -793 3142 -786 3148 5 6 768
201 792 203 6 1 189 -709 407 -1578z m-2502 -171 l0 -1630 -415 0 -415 0 0
1630 0 1630 415 0 415 0 0 -1630z"/>
<path d="M1840 4390 c-27 -27 -26 -71 3 -98 23 -22 29 -22 318 -22 283 0 296
1 317 20 28 26 29 73 2 100 -19 19 -33 20 -320 20 -287 0 -301 -1 -320 -20z"/>
<path d="M1846 849 c-32 -25 -35 -70 -6 -99 19 -19 33 -20 318 -20 253 0 301
2 320 16 29 20 30 76 2 104 -19 19 -33 20 -314 20 -282 0 -294 -1 -320 -21z"/>
<path d="M3296 3302 c-230 -60 -261 -70 -279 -94 -25 -33 -17 -71 19 -95 26
-16 35 -15 307 53 165 40 290 77 304 87 27 22 30 62 7 95 -23 34 -70 28 -358
-46z"/>
<path d="M3870 966 c-262 -68 -275 -72 -288 -99 -18 -37 -1 -82 36 -95 38 -12
588 126 608 153 33 45 -4 117 -60 114 -11 -1 -145 -33 -296 -73z"/>
<path d="M800 3250 c-29 -29 -26 -74 6 -99 26 -20 38 -21 318 -21 280 0 293 1
314 20 28 26 29 73 2 100 -19 19 -33 20 -320 20 -287 0 -301 -1 -320 -20z"/>
<path d="M785 845 c-30 -30 -31 -54 -4 -89 l20 -26 304 0 304 0 20 26 c27 35
26 59 -4 89 l-24 25 -296 0 -296 0 -24 -25z"/>
</g>
</svg>
